<svg aria-hidden="true" style="position: absolute; width: 0; height: 0; overflow: hidden;" version="1.1" xmlns="http://www.w3.org/2000/svg" xmlns:xlink="http://www.w3.org/1999/xlink">
<defs>
<symbol id="icon-commercial" viewBox="0 0 32 32">
<path d="M31.523 7.883h-6.468v-7.128c-0-0.123-0.049-0.24-0.136-0.327s-0.204-0.136-0.327-0.136h-23.432c-0.123 0-0.24 0.049-0.327 0.136s-0.136 0.205-0.136 0.327v30.363c0 0.123 0.049 0.24 0.136 0.327s0.204 0.136 0.327 0.136h30.363c0.123-0 0.241-0.049 0.327-0.136s0.136-0.204 0.136-0.327v-22.772c-0-0.123-0.049-0.241-0.136-0.327s-0.205-0.136-0.327-0.136zM1.623 1.218h22.506v29.437h-6.929v-8.055c-0-0.123-0.049-0.24-0.136-0.327s-0.204-0.136-0.327-0.136h-7.723c-0.123 0-0.24 0.049-0.327 0.136s-0.136 0.204-0.136 0.327v8.055h-6.929v-29.437zM9.477 30.655v-7.592h6.797v7.592h-6.797zM31.060 30.655h-6.005v-21.846h6.005v21.846zM6.243 4.979v4.359c-0.004 0.12-0.054 0.234-0.141 0.318s-0.202 0.13-0.322 0.13-0.236-0.047-0.322-0.13c-0.086-0.084-0.137-0.198-0.141-0.318v-4.359c0.004-0.12 0.054-0.234 0.141-0.318s0.202-0.13 0.322-0.13c0.12 0 0.236 0.047 0.322 0.13s0.137 0.198 0.141 0.318zM10.070 9.338v-4.359c0.004-0.12 0.054-0.234 0.141-0.318s0.202-0.13 0.322-0.13c0.12 0 0.236 0.047 0.322 0.13s0.137 0.198 0.141 0.318v4.359c-0.004 0.12-0.054 0.234-0.141 0.318s-0.202 0.13-0.322 0.13c-0.12 0-0.236-0.047-0.322-0.13s-0.137-0.198-0.141-0.318zM14.822 9.338v-4.359c0.004-0.12 0.054-0.234 0.141-0.318s0.202-0.13 0.322-0.13c0.12 0 0.236 0.047 0.322 0.13s0.137 0.198 0.141 0.318v4.359c-0.004 0.12-0.054 0.234-0.141 0.318s-0.202 0.13-0.322 0.13c-0.12 0-0.236-0.047-0.322-0.13s-0.137-0.198-0.141-0.318zM19.574 9.338v-4.359c0.004-0.12 0.054-0.234 0.141-0.318s0.202-0.13 0.322-0.13c0.12 0 0.236 0.047 0.322 0.13s0.137 0.198 0.141 0.318v4.359c-0.004 0.12-0.054 0.234-0.141 0.318s-0.202 0.13-0.322 0.13c-0.12 0-0.236-0.047-0.322-0.13s-0.137-0.198-0.141-0.318zM6.243 13.329v4.359c-0.004 0.12-0.054 0.234-0.141 0.318s-0.202 0.13-0.322 0.13-0.236-0.047-0.322-0.13c-0.086-0.084-0.137-0.198-0.141-0.318v-4.359c0.004-0.12 0.054-0.234 0.141-0.318s0.202-0.13 0.322-0.13 0.236 0.047 0.322 0.13c0.086 0.084 0.137 0.198 0.141 0.318zM10.070 17.687v-4.359c0.004-0.12 0.054-0.234 0.141-0.318s0.202-0.13 0.322-0.13c0.12 0 0.236 0.047 0.322 0.13s0.137 0.198 0.141 0.318v4.359c-0.004 0.12-0.054 0.234-0.141 0.318s-0.202 0.13-0.322 0.13c-0.12 0-0.236-0.047-0.322-0.13s-0.137-0.198-0.141-0.318zM14.822 17.687v-4.359c0.004-0.12 0.054-0.234 0.141-0.318s0.202-0.13 0.322-0.13c0.12 0 0.236 0.047 0.322 0.13s0.137 0.198 0.141 0.318v4.359c-0.004 0.12-0.054 0.234-0.141 0.318s-0.202 0.13-0.322 0.13c-0.12 0-0.236-0.047-0.322-0.13s-0.137-0.198-0.141-0.318zM19.574 17.687v-4.359c0.004-0.12 0.054-0.234 0.141-0.318s0.202-0.13 0.322-0.13c0.12 0 0.236 0.047 0.322 0.13s0.137 0.198 0.141 0.318v4.359c-0.004 0.12-0.054 0.234-0.141 0.318s-0.202 0.13-0.322 0.13c-0.12 0-0.236-0.047-0.322-0.13s-0.137-0.198-0.141-0.318zM27.594 16.43v-4.359c0.004-0.12 0.054-0.234 0.141-0.318s0.202-0.13 0.322-0.13 0.236 0.047 0.322 0.13c0.086 0.084 0.137 0.198 0.141 0.318v4.359c-0.004 0.12-0.054 0.234-0.141 0.318s-0.202 0.13-0.322 0.13-0.236-0.047-0.322-0.13c-0.086-0.084-0.137-0.198-0.141-0.318zM27.594 24.779v-4.359c0.004-0.12 0.054-0.234 0.141-0.318s0.202-0.13 0.322-0.13 0.236 0.047 0.322 0.13c0.086 0.084 0.137 0.198 0.141 0.318v4.359c-0.004 0.12-0.054 0.234-0.141 0.318s-0.202 0.13-0.322 0.13-0.236-0.047-0.322-0.13c-0.086-0.084-0.137-0.198-0.141-0.318z"></path>
</symbol>
<symbol id="icon-construction" viewBox="0 0 32 32">
<path d="M31.489 24.861h-7.581v-8.591c0-6.399-5.206-11.605-11.606-11.605s-11.605 5.206-11.605 11.605c0 5.977 4.543 10.91 10.356 11.535 0.072 0.041 0.151 0.070 0.239 0.070h10.098c1.218 0 2.235-0.869 2.467-2.020h7.134v1.522c0.004 0.129 0.058 0.252 0.151 0.341s0.217 0.14 0.346 0.14c0.129 0 0.253-0.050 0.346-0.14s0.147-0.212 0.151-0.341v-2.020c0-0.132-0.052-0.258-0.146-0.352s-0.22-0.146-0.352-0.146zM21.39 26.881h-9.088c-5.851 0-10.611-4.76-10.611-10.611s4.76-10.611 10.611-10.611c5.851 0 10.611 4.76 10.611 10.611v9.088c-0.001 0.404-0.161 0.79-0.447 1.076s-0.672 0.446-1.076 0.447zM12.302 8.704c-4.172 0-7.566 3.394-7.566 7.566s3.394 7.566 7.566 7.566c4.172 0 7.566-3.394 7.566-7.566s-3.394-7.566-7.566-7.566zM12.302 22.842c-3.623 0-6.571-2.948-6.571-6.572s2.948-6.572 6.571-6.572c3.624 0 6.572 2.948 6.572 6.572s-2.948 6.572-6.572 6.572z"></path>
</symbol>
<symbol id="icon-management" viewBox="0 0 32 32">
<path d="M29.336 20.919c-0.14-13.51-6.98-14.184-10.117-14.217v-0.555c-0-0.39-0.156-0.764-0.431-1.040s-0.65-0.431-1.040-0.432h-4.049c-0.39 0-0.764 0.156-1.040 0.432s-0.431 0.65-0.431 1.040v0.555c-3.137 0.033-9.977 0.707-10.117 14.217-1.154 0.214-2.032 1.223-2.032 2.438v2.025c0 0.122 0.048 0.238 0.135 0.324s0.203 0.134 0.324 0.134c2.867 0 4.806 0.457 6.86 0.942 2.258 0.532 4.592 1.083 8.326 1.083s6.068-0.55 8.326-1.083c2.054-0.485 3.993-0.942 6.86-0.942 0.122 0 0.238-0.048 0.324-0.134s0.134-0.203 0.135-0.324v-2.025c0-1.215-0.878-2.224-2.031-2.438zM8.177 8.428v4.804c0.004 0.119 0.054 0.232 0.139 0.315s0.2 0.129 0.319 0.129 0.234-0.046 0.319-0.129c0.086-0.083 0.136-0.196 0.14-0.315v-5.173c1.149-0.371 2.26-0.431 3.131-0.44v7.638c0.004 0.119 0.054 0.232 0.14 0.315s0.2 0.129 0.319 0.129c0.119 0 0.234-0.046 0.319-0.129s0.136-0.196 0.14-0.315v-9.111c0-0.147 0.058-0.287 0.162-0.391s0.244-0.162 0.391-0.162h4.050c0.147 0 0.287 0.059 0.391 0.162s0.162 0.245 0.162 0.391v9.111c0.004 0.119 0.054 0.232 0.139 0.315s0.2 0.129 0.32 0.129 0.234-0.046 0.32-0.129c0.086-0.083 0.136-0.196 0.14-0.315v-7.638c0.872 0.009 1.983 0.068 3.131 0.44v5.173c0.004 0.119 0.054 0.232 0.14 0.315s0.2 0.129 0.32 0.129c0.119 0 0.234-0.046 0.319-0.129s0.136-0.196 0.14-0.315v-4.805c2.578 1.244 5.056 4.41 5.149 12.444h-25.388c0.093-8.034 2.572-11.201 5.149-12.444zM23.838 25.888c-2.207 0.52-4.489 1.059-8.115 1.059s-5.908-0.538-8.115-1.059c-1.994-0.47-3.894-0.911-6.612-0.957v-1.575c0-0.415 0.166-0.813 0.459-1.107s0.692-0.459 1.107-0.459h26.321c0.863 0 1.566 0.702 1.566 1.565v1.575c-2.718 0.047-4.617 0.487-6.611 0.957z"></path>
</symbol>
<symbol id="icon-residential" viewBox="0 0 32 32">
<path d="M31.217 16.698l-2.56-2.558c-0.002-0.002-0.003-0.005-0.005-0.008l-12.566-12.552c-0.096-0.096-0.227-0.15-0.363-0.15s-0.267 0.054-0.363 0.15l-12.565 12.553c-0.002 0.002-0.003 0.006-0.005 0.008l-2.56 2.558c-0.048 0.048-0.086 0.104-0.111 0.166s-0.039 0.129-0.039 0.196c0 0.067 0.013 0.134 0.039 0.196s0.064 0.119 0.111 0.166c0.048 0.048 0.104 0.086 0.166 0.111s0.129 0.039 0.196 0.039 0.134-0.013 0.196-0.039c0.062-0.026 0.119-0.064 0.166-0.111l1.689-1.687v14.191c0 0.136 0.054 0.267 0.15 0.363s0.227 0.15 0.363 0.15h25.132c0.136-0 0.267-0.054 0.363-0.15s0.15-0.227 0.15-0.363v-14.191l1.689 1.687c0.1 0.1 0.232 0.15 0.363 0.15 0.101-0 0.201-0.030 0.285-0.087s0.15-0.137 0.189-0.23c0.039-0.094 0.049-0.197 0.029-0.297s-0.069-0.191-0.14-0.263zM11.954 29.415v-8.42h7.538v8.42h-7.538zM27.775 29.415h-7.256v-8.933c-0-0.136-0.054-0.267-0.15-0.363s-0.227-0.15-0.363-0.15h-8.565c-0.136 0-0.267 0.054-0.363 0.15s-0.15 0.227-0.15 0.363v8.933h-7.256v-14.704l12.052-12.041 12.052 12.041 0 14.704z"></path>
</symbol>
<symbol id="icon-arrow" viewBox="0 0 32 32">
<path d="M27.531 9.79v17.995h-17.278v-2.882h12.275l-19.040-18.398 2.001-2.076 19.145 18.517v-13.156h2.897z"></path>
</symbol>
<symbol id="icon-tiktok" viewBox="0 0 28 32">
<path d="M28 13.119c-0.009 0-0.020 0-0.031 0-2.868 0-5.521-0.919-7.68-2.48l0.039 0.027v11.17c-0.002 5.609-4.55 10.156-10.159 10.156-5.611 0-10.159-4.549-10.159-10.159s4.548-10.159 10.159-10.159c0.492 0 0.976 0.035 1.449 0.103l-0.054-0.006v5.618c-0.418-0.136-0.9-0.215-1.399-0.215-2.576 0-4.664 2.088-4.664 4.664s2.088 4.664 4.664 4.664c2.576 0 4.664-2.088 4.664-4.664 0-0 0-0 0-0v0-21.836h5.5c-0 0.018-0 0.040-0 0.062 0 0.468 0.042 0.925 0.124 1.37l-0.007-0.046c0.406 2.115 1.638 3.886 3.34 4.996l0.029 0.018c1.178 0.789 2.627 1.259 4.186 1.259 0.001 0 0.001 0 0.002 0h-0z"></path>
</symbol>
<symbol id="icon-youtube" viewBox="0 0 32 32">
<path d="M31.331 8.298c-0.368-1.377-1.452-2.461-2.829-2.829-2.496-0.669-12.502-0.669-12.502-0.669s-10.007 0-12.502 0.669c-1.377 0.368-2.461 1.452-2.829 2.829-0.669 2.495-0.669 7.702-0.669 7.702s0 5.207 0.669 7.702c0.368 1.377 1.452 2.461 2.829 2.829 2.496 0.669 12.502 0.669 12.502 0.669s10.007 0 12.502-0.669c1.377-0.368 2.461-1.452 2.829-2.829 0.669-2.495 0.669-7.702 0.669-7.702s0-5.207-0.669-7.702zM12.8 20.8v-9.6l8.314 4.8-8.314 4.8z"></path>
</symbol>
<symbol id="icon-linkedin" viewBox="0 0 28 32">
<path d="M6.268 28h-5.805v-18.694h5.805zM3.362 6.756c-1.856 0-3.362-1.537-3.362-3.394s1.505-3.362 3.362-3.362 3.362 1.505 3.362 3.362v0c0 1.856-1.506 3.394-3.362 3.394zM27.994 28h-5.793v-9.1c0-2.169-0.044-4.95-3.018-4.95-3.018 0-3.481 2.356-3.481 4.794v9.256h-5.799v-18.694h5.568v2.55h0.081c0.775-1.469 2.668-3.019 5.492-3.019 5.875 0 6.955 3.869 6.955 8.894v10.269z"></path>
</symbol>
<symbol id="icon-x" viewBox="0 0 32 32">
<path d="M18.794 13.755l10.921-12.422h-2.588l-9.487 10.784-7.572-10.784h-8.735l11.453 16.308-11.453 13.025h2.588l10.012-11.39 7.998 11.39h8.735l-11.873-16.911zM15.249 17.785l-10.395-14.542h3.975l18.297 25.609h-3.975l-7.902-11.066z"></path>
</symbol>
<symbol id="icon-facebook" viewBox="0 0 32 32">
<path d="M32 16.097c0-8.837-7.163-16-16-16s-16 7.163-16 16c0 7.986 5.851 14.605 13.5 15.806v-11.181h-4.063v-4.625h4.063v-3.525c0-4.010 2.389-6.225 6.043-6.225 1.751 0 3.582 0.313 3.582 0.313v3.938h-2.018c-1.988 0-2.607 1.233-2.607 2.499v3.001h4.438l-0.709 4.625h-3.728v11.181c7.649-1.2 13.5-7.82 13.5-15.806z"></path>
</symbol>
<symbol id="icon-instagram" viewBox="0 0 32 32">
<path d="M15.915 9.425c-3.951 0-7.224 3.217-7.224 7.224s3.217 7.224 7.224 7.224 7.224-3.273 7.224-7.224-3.273-7.224-7.224-7.224zM15.915 21.277c-2.54 0-4.628-2.088-4.628-4.628s2.088-4.628 4.628-4.628 4.628 2.088 4.628 4.628-2.088 4.628-4.628 4.628z"></path>
<path d="M25.058 9.256c0 0.904-0.733 1.637-1.637 1.637s-1.637-0.733-1.637-1.637c0-0.904 0.733-1.637 1.637-1.637s1.637 0.733 1.637 1.637z"></path>
<path d="M27.654 5.023c-1.467-1.524-3.556-2.314-5.926-2.314h-11.626c-4.91 0-8.183 3.273-8.183 8.183v11.57c0 2.427 0.79 4.515 2.37 6.039 1.524 1.467 3.556 2.201 5.869 2.201h11.513c2.427 0 4.459-0.79 5.926-2.201 1.524-1.467 2.314-3.556 2.314-5.982v-11.626c0-2.37-0.79-4.402-2.258-5.87zM27.429 22.519c0 1.75-0.621 3.16-1.637 4.12s-2.427 1.467-4.12 1.467h-11.513c-1.693 0-3.104-0.508-4.12-1.467-1.016-1.016-1.524-2.427-1.524-4.176v-11.57c0-1.693 0.508-3.104 1.524-4.12 0.959-0.959 2.427-1.467 4.12-1.467h11.626c1.693 0 3.104 0.508 4.12 1.524 0.959 1.016 1.524 2.427 1.524 4.064v11.626z"></path>
</symbol>
</defs>
</svg>
