<svg aria-hidden="true" style="position: absolute; width: 0; height: 0; overflow: hidden;" version="1.1" xmlns="http://www.w3.org/2000/svg" xmlns:xlink="http://www.w3.org/1999/xlink">
<defs>
<symbol id="icon-commercial" viewBox="0 0 32 32">
<path d="M31.523 7.883h-6.468v-7.128c-0-0.123-0.049-0.24-0.136-0.327s-0.204-0.136-0.327-0.136h-23.432c-0.123 0-0.24 0.049-0.327 0.136s-0.136 0.205-0.136 0.327v30.363c0 0.123 0.049 0.24 0.136 0.327s0.204 0.136 0.327 0.136h30.363c0.123-0 0.241-0.049 0.327-0.136s0.136-0.204 0.136-0.327v-22.772c-0-0.123-0.049-0.241-0.136-0.327s-0.205-0.136-0.327-0.136zM1.623 1.218h22.506v29.437h-6.929v-8.055c-0-0.123-0.049-0.24-0.136-0.327s-0.204-0.136-0.327-0.136h-7.723c-0.123 0-0.24 0.049-0.327 0.136s-0.136 0.204-0.136 0.327v8.055h-6.929v-29.437zM9.477 30.655v-7.592h6.797v7.592h-6.797zM31.060 30.655h-6.005v-21.846h6.005v21.846zM6.243 4.979v4.359c-0.004 0.12-0.054 0.234-0.141 0.318s-0.202 0.13-0.322 0.13-0.236-0.047-0.322-0.13c-0.086-0.084-0.137-0.198-0.141-0.318v-4.359c0.004-0.12 0.054-0.234 0.141-0.318s0.202-0.13 0.322-0.13c0.12 0 0.236 0.047 0.322 0.13s0.137 0.198 0.141 0.318zM10.070 9.338v-4.359c0.004-0.12 0.054-0.234 0.141-0.318s0.202-0.13 0.322-0.13c0.12 0 0.236 0.047 0.322 0.13s0.137 0.198 0.141 0.318v4.359c-0.004 0.12-0.054 0.234-0.141 0.318s-0.202 0.13-0.322 0.13c-0.12 0-0.236-0.047-0.322-0.13s-0.137-0.198-0.141-0.318zM14.822 9.338v-4.359c0.004-0.12 0.054-0.234 0.141-0.318s0.202-0.13 0.322-0.13c0.12 0 0.236 0.047 0.322 0.13s0.137 0.198 0.141 0.318v4.359c-0.004 0.12-0.054 0.234-0.141 0.318s-0.202 0.13-0.322 0.13c-0.12 0-0.236-0.047-0.322-0.13s-0.137-0.198-0.141-0.318zM19.574 9.338v-4.359c0.004-0.12 0.054-0.234 0.141-0.318s0.202-0.13 0.322-0.13c0.12 0 0.236 0.047 0.322 0.13s0.137 0.198 0.141 0.318v4.359c-0.004 0.12-0.054 0.234-0.141 0.318s-0.202 0.13-0.322 0.13c-0.12 0-0.236-0.047-0.322-0.13s-0.137-0.198-0.141-0.318zM6.243 13.329v4.359c-0.004 0.12-0.054 0.234-0.141 0.318s-0.202 0.13-0.322 0.13-0.236-0.047-0.322-0.13c-0.086-0.084-0.137-0.198-0.141-0.318v-4.359c0.004-0.12 0.054-0.234 0.141-0.318s0.202-0.13 0.322-0.13 0.236 0.047 0.322 0.13c0.086 0.084 0.137 0.198 0.141 0.318zM10.070 17.687v-4.359c0.004-0.12 0.054-0.234 0.141-0.318s0.202-0.13 0.322-0.13c0.12 0 0.236 0.047 0.322 0.13s0.137 0.198 0.141 0.318v4.359c-0.004 0.12-0.054 0.234-0.141 0.318s-0.202 0.13-0.322 0.13c-0.12 0-0.236-0.047-0.322-0.13s-0.137-0.198-0.141-0.318zM14.822 17.687v-4.359c0.004-0.12 0.054-0.234 0.141-0.318s0.202-0.13 0.322-0.13c0.12 0 0.236 0.047 0.322 0.13s0.137 0.198 0.141 0.318v4.359c-0.004 0.12-0.054 0.234-0.141 0.318s-0.202 0.13-0.322 0.13c-0.12 0-0.236-0.047-0.322-0.13s-0.137-0.198-0.141-0.318zM19.574 17.687v-4.359c0.004-0.12 0.054-0.234 0.141-0.318s0.202-0.13 0.322-0.13c0.12 0 0.236 0.047 0.322 0.13s0.137 0.198 0.141 0.318v4.359c-0.004 0.12-0.054 0.234-0.141 0.318s-0.202 0.13-0.322 0.13c-0.12 0-0.236-0.047-0.322-0.13s-0.137-0.198-0.141-0.318zM27.594 16.43v-4.359c0.004-0.12 0.054-0.234 0.141-0.318s0.202-0.13 0.322-0.13 0.236 0.047 0.322 0.13c0.086 0.084 0.137 0.198 0.141 0.318v4.359c-0.004 0.12-0.054 0.234-0.141 0.318s-0.202 0.13-0.322 0.13-0.236-0.047-0.322-0.13c-0.086-0.084-0.137-0.198-0.141-0.318zM27.594 24.779v-4.359c0.004-0.12 0.054-0.234 0.141-0.318s0.202-0.13 0.322-0.13 0.236 0.047 0.322 0.13c0.086 0.084 0.137 0.198 0.141 0.318v4.359c-0.004 0.12-0.054 0.234-0.141 0.318s-0.202 0.13-0.322 0.13-0.236-0.047-0.322-0.13c-0.086-0.084-0.137-0.198-0.141-0.318z"></path>
</symbol>
<symbol id="icon-construction" viewBox="0 0 32 32">
<path d="M31.489 24.861h-7.581v-8.591c0-6.399-5.206-11.605-11.606-11.605s-11.605 5.206-11.605 11.605c0 5.977 4.543 10.91 10.356 11.535 0.072 0.041 0.151 0.070 0.239 0.070h10.098c1.218 0 2.235-0.869 2.467-2.020h7.134v1.522c0.004 0.129 0.058 0.252 0.151 0.341s0.217 0.14 0.346 0.14c0.129 0 0.253-0.050 0.346-0.14s0.147-0.212 0.151-0.341v-2.020c0-0.132-0.052-0.258-0.146-0.352s-0.22-0.146-0.352-0.146zM21.39 26.881h-9.088c-5.851 0-10.611-4.76-10.611-10.611s4.76-10.611 10.611-10.611c5.851 0 10.611 4.76 10.611 10.611v9.088c-0.001 0.404-0.161 0.79-0.447 1.076s-0.672 0.446-1.076 0.447zM12.302 8.704c-4.172 0-7.566 3.394-7.566 7.566s3.394 7.566 7.566 7.566c4.172 0 7.566-3.394 7.566-7.566s-3.394-7.566-7.566-7.566zM12.302 22.842c-3.623 0-6.571-2.948-6.571-6.572s2.948-6.572 6.571-6.572c3.624 0 6.572 2.948 6.572 6.572s-2.948 6.572-6.572 6.572z"></path>
</symbol>
<symbol id="icon-management" viewBox="0 0 32 32">
<path d="M29.336 20.919c-0.14-13.51-6.98-14.184-10.117-14.217v-0.555c-0-0.39-0.156-0.764-0.431-1.040s-0.65-0.431-1.040-0.432h-4.049c-0.39 0-0.764 0.156-1.040 0.432s-0.431 0.65-0.431 1.040v0.555c-3.137 0.033-9.977 0.707-10.117 14.217-1.154 0.214-2.032 1.223-2.032 2.438v2.025c0 0.122 0.048 0.238 0.135 0.324s0.203 0.134 0.324 0.134c2.867 0 4.806 0.457 6.86 0.942 2.258 0.532 4.592 1.083 8.326 1.083s6.068-0.55 8.326-1.083c2.054-0.485 3.993-0.942 6.86-0.942 0.122 0 0.238-0.048 0.324-0.134s0.134-0.203 0.135-0.324v-2.025c0-1.215-0.878-2.224-2.031-2.438zM8.177 8.428v4.804c0.004 0.119 0.054 0.232 0.139 0.315s0.2 0.129 0.319 0.129 0.234-0.046 0.319-0.129c0.086-0.083 0.136-0.196 0.14-0.315v-5.173c1.149-0.371 2.26-0.431 3.131-0.44v7.638c0.004 0.119 0.054 0.232 0.14 0.315s0.2 0.129 0.319 0.129c0.119 0 0.234-0.046 0.319-0.129s0.136-0.196 0.14-0.315v-9.111c0-0.147 0.058-0.287 0.162-0.391s0.244-0.162 0.391-0.162h4.050c0.147 0 0.287 0.059 0.391 0.162s0.162 0.245 0.162 0.391v9.111c0.004 0.119 0.054 0.232 0.139 0.315s0.2 0.129 0.32 0.129 0.234-0.046 0.32-0.129c0.086-0.083 0.136-0.196 0.14-0.315v-7.638c0.872 0.009 1.983 0.068 3.131 0.44v5.173c0.004 0.119 0.054 0.232 0.14 0.315s0.2 0.129 0.32 0.129c0.119 0 0.234-0.046 0.319-0.129s0.136-0.196 0.14-0.315v-4.805c2.578 1.244 5.056 4.41 5.149 12.444h-25.388c0.093-8.034 2.572-11.201 5.149-12.444zM23.838 25.888c-2.207 0.52-4.489 1.059-8.115 1.059s-5.908-0.538-8.115-1.059c-1.994-0.47-3.894-0.911-6.612-0.957v-1.575c0-0.415 0.166-0.813 0.459-1.107s0.692-0.459 1.107-0.459h26.321c0.863 0 1.566 0.702 1.566 1.565v1.575c-2.718 0.047-4.617 0.487-6.611 0.957z"></path>
</symbol>
<symbol id="icon-residential" viewBox="0 0 32 32">
<path d="M31.217 16.698l-2.56-2.558c-0.002-0.002-0.003-0.005-0.005-0.008l-12.566-12.552c-0.096-0.096-0.227-0.15-0.363-0.15s-0.267 0.054-0.363 0.15l-12.565 12.553c-0.002 0.002-0.003 0.006-0.005 0.008l-2.56 2.558c-0.048 0.048-0.086 0.104-0.111 0.166s-0.039 0.129-0.039 0.196c0 0.067 0.013 0.134 0.039 0.196s0.064 0.119 0.111 0.166c0.048 0.048 0.104 0.086 0.166 0.111s0.129 0.039 0.196 0.039 0.134-0.013 0.196-0.039c0.062-0.026 0.119-0.064 0.166-0.111l1.689-1.687v14.191c0 0.136 0.054 0.267 0.15 0.363s0.227 0.15 0.363 0.15h25.132c0.136-0 0.267-0.054 0.363-0.15s0.15-0.227 0.15-0.363v-14.191l1.689 1.687c0.1 0.1 0.232 0.15 0.363 0.15 0.101-0 0.201-0.030 0.285-0.087s0.15-0.137 0.189-0.23c0.039-0.094 0.049-0.197 0.029-0.297s-0.069-0.191-0.14-0.263zM11.954 29.415v-8.42h7.538v8.42h-7.538zM27.775 29.415h-7.256v-8.933c-0-0.136-0.054-0.267-0.15-0.363s-0.227-0.15-0.363-0.15h-8.565c-0.136 0-0.267 0.054-0.363 0.15s-0.15 0.227-0.15 0.363v8.933h-7.256v-14.704l12.052-12.041 12.052 12.041 0 14.704z"></path>
</symbol>
<symbol id="icon-arrow" viewBox="0 0 32 32">
<path d="M27.531 9.79v17.995h-17.278v-2.882h12.275l-19.040-18.398 2.001-2.076 19.145 18.517v-13.156h2.897z"></path>
</symbol>
</defs>
</svg>
